<?xml version="1.0" encoding="UTF-8" standalone="no"?>
<!-- Created with Inkscape (http://www.inkscape.org/) -->

<svg
   xmlns:dc="http://purl.org/dc/elements/1.1/"
   xmlns:cc="http://creativecommons.org/ns#"
   xmlns:rdf="http://www.w3.org/1999/02/22-rdf-syntax-ns#"
   xmlns:svg="http://www.w3.org/2000/svg"
   xmlns="http://www.w3.org/2000/svg"
   xmlns:sodipodi="http://sodipodi.sourceforge.net/DTD/sodipodi-0.dtd"
   xmlns:inkscape="http://www.inkscape.org/namespaces/inkscape"
   width="250cm"
   height="100cm"
   viewBox="0 0 8858.2677 3543.3071"
   id="svg2"
   version="1.1"
   inkscape:version="0.91 r13725"
   sodipodi:docname="Morowo_harcerstwo_militaria_outdoor.svg"
   inkscape:export-filename="\\192.168.0.121\temporary_military_intel\Projekty\Logo Firmy\Morowo_harcerstwo_militaria_outdoor.png"
   inkscape:export-xdpi="90"
   inkscape:export-ydpi="90">
  <defs
     id="defs4">
    <clipPath
       id="clipPath3352"
       clipPathUnits="userSpaceOnUse">
      <path
         inkscape:connector-curvature="0"
         id="path3354"
         d="m 42.824,1318.189 6746.672,0 0,-636.969 -6746.672,0 0,636.969 z" />
    </clipPath>
    <clipPath
       id="clipPath3362"
       clipPathUnits="userSpaceOnUse">
      <path
         inkscape:connector-curvature="0"
         id="path3364"
         d="m 42,681 6743,0 0,638 -6743,0 0,-638 z" />
    </clipPath>
    <clipPath
       id="clipPath3372"
       clipPathUnits="userSpaceOnUse">
      <path
         inkscape:connector-curvature="0"
         id="path3374"
         d="m 42.824,1318.676 6742.152,0 0,-637.098 -6742.152,0 0,637.098 z" />
    </clipPath>
    <clipPath
       id="clipPath3382"
       clipPathUnits="userSpaceOnUse">
      <path
         inkscape:connector-curvature="0"
         id="path3384"
         d="m 42,684 6743,0 0,635 -6743,0 0,-635 z" />
    </clipPath>
  </defs>
  <sodipodi:namedview
     id="base"
     pagecolor="#ffffff"
     bordercolor="#666666"
     borderopacity="1.0"
     inkscape:pageopacity="0.0"
     inkscape:pageshadow="2"
     inkscape:zoom="0.12374369"
     inkscape:cx="3839.8046"
     inkscape:cy="1604.1563"
     inkscape:document-units="px"
     inkscape:current-layer="layer1"
     showgrid="false"
     units="cm"
     showguides="true"
     inkscape:guide-bbox="true"
     inkscape:window-width="1920"
     inkscape:window-height="1017"
     inkscape:window-x="-8"
     inkscape:window-y="-8"
     inkscape:window-maximized="1">
    <sodipodi:guide
       position="60.609153,3539.5745"
       orientation="0,1"
       id="guide3444" />
    <sodipodi:guide
       position="16.162441,4.0406101"
       orientation="0,1"
       id="guide3446" />
    <sodipodi:guide
       position="400.02041,2000.102"
       orientation="0,1"
       id="guide3448" />
    <sodipodi:guide
       position="4444.6713,3539.5745"
       orientation="1,0"
       id="guide3450" />
  </sodipodi:namedview>
  <metadata
     id="metadata7">
    <rdf:RDF>
      <cc:Work
         rdf:about="">
        <dc:format>image/svg+xml</dc:format>
        <dc:type
           rdf:resource="http://purl.org/dc/dcmitype/StillImage" />
        <dc:title />
      </cc:Work>
    </rdf:RDF>
  </metadata>
  <g
     inkscape:label="Layer 1"
     inkscape:groupmode="layer"
     id="layer1"
     transform="translate(0,2490.9449)">
    <g
       transform="matrix(1.25,0,0,-1.25,11.547824,702.07664)"
       inkscape:label="Baner1"
       id="g3344"
       style="fill:#000000">
      <g
         id="g3346"
         style="fill:#000000" />
      <g
         id="g3348"
         style="fill:#000000">
        <g
           clip-path="url(#clipPath3352)"
           id="g3350"
           style="fill:#000000">
          <g
             transform="translate(0,-0.354248)"
             id="g3356"
             style="fill:#000000">
            <g
               id="g3358"
               style="fill:#000000">
              <g
                 clip-path="url(#clipPath3362)"
                 id="g3360"
                 style="fill:#000000">
                <g
                   id="g3366"
                   style="fill:#000000" />
                <g
                   id="g3368"
                   style="fill:#000000">
                  <g
                     clip-path="url(#clipPath3372)"
                     id="g3370"
                     style="fill:#000000">
                    <g
                       id="g3376"
                       style="fill:#000000">
                      <g
                         id="g3378"
                         style="fill:#000000">
                        <g
                           clip-path="url(#clipPath3382)"
                           id="g3380"
                           style="fill:#000000">
                          <g
                             id="g3386"
                             style="fill:#000000">
                            <path
                               inkscape:connector-curvature="0"
                               id="path3388"
                               style="fill:#000000;fill-opacity:1;fill-rule:nonzero;stroke:none"
                               d="m 42.824,697.766 0,503.726 c 0,33.957 20.949,61.656 62.805,83.141 41.875,21.449 97.312,32.18 166.367,32.18 22.66,0 45.863,-1.102 69.621,-3.372 84.852,-9.07 136.356,-34.5 154.469,-76.332 l 152.785,-352.781 169.766,352.781 c 20.367,41.832 71.308,67.262 152.785,76.332 23.758,2.27 47.519,3.372 71.281,3.372 67.953,0 122.832,-10.731 164.707,-32.18 41.871,-21.485 62.805,-49.184 62.805,-83.141 l 0,-503.726 -249.539,0 0,437.589 -190.133,-368.078 c -6.82,-14.675 -15.887,-27.14 -27.141,-37.336 -29.472,-30.531 -78.707,-45.765 -147.714,-45.765 -87.168,0 -144.883,27.699 -173.172,83.101 l -188.426,368.078 0,-437.589 -251.266,0 z" />
                            <path
                               inkscape:connector-curvature="0"
                               id="path3390"
                               style="fill:#000000;fill-opacity:1;fill-rule:nonzero;stroke:none"
                               d="m 1692.898,1135.355 1.727,-262.886 c 0,-28.305 28.848,-42.438 86.539,-42.438 l 161.293,0 c 57.715,0 86.563,12.465 86.563,37.328 l 0,267.996 c 0,28.266 -28.848,42.379 -86.563,42.379 l -161.293,0 c -58.84,0 -88.266,-14.113 -88.266,-42.379 m -263.113,42.379 c 0,10.188 2.258,20.946 6.754,32.243 28.309,65.57 118.289,98.378 269.945,98.378 l 310.696,0 c 182.191,0 273.297,-43.546 273.297,-130.621 l 0,-347.703 c 0,-88.183 -91.668,-132.265 -275.032,-132.265 l -308.961,0 c -83.746,0 -146.011,7.574 -186.757,22.875 -40.707,15.277 -67.907,40.984 -81.477,77.148 -4.523,11.32 -6.816,21.508 -6.816,30.531 l -1.649,349.414 z" />
                            <path
                               inkscape:connector-curvature="0"
                               id="path3392"
                               style="fill:#000000;fill-opacity:1;fill-rule:nonzero;stroke:none"
                               d="m 2450.055,1308.355 614.566,0 c 168.582,0 252.934,-41.269 252.934,-123.808 l 0,-122.141 c 0,-39.597 -24.93,-70.679 -74.723,-93.293 -35.102,-15.84 -76.973,-25.422 -125.602,-28.8 -19.257,-1.149 -34.558,-1.708 -45.855,-1.708 l -40.77,1.708 298.813,-242.547 -310.648,0 -276.7,227.265 c -17.007,13.574 -23.8,29.367 -20.382,47.461 9.023,52.02 61.652,78.059 157.843,78.059 l 106.989,0 c 46.382,0 69.578,11.297 69.578,33.91 l 0,55.98 c 0,20.344 -21.493,32.247 -64.532,35.625 -3.378,1.102 -9.023,1.704 -16.945,1.704 l -261.461,0 0,-480.004 -263.105,0 0,610.589 z" />
                            <path
                               inkscape:connector-curvature="0"
                               id="path3394"
                               style="fill:#000000;fill-opacity:1;fill-rule:nonzero;stroke:none"
                               d="m 3726.672,1135.355 1.668,-262.886 c 0,-28.305 28.89,-42.438 86.605,-42.438 l 161.262,0 c 57.719,0 86.586,12.465 86.586,37.328 l 0,267.996 c 0,28.266 -28.867,42.379 -86.586,42.379 l -161.262,0 c -58.863,0 -88.273,-14.113 -88.273,-42.379 m -263.125,42.379 c 0,10.188 2.226,20.946 6.75,32.243 28.305,65.57 118.308,98.378 269.941,98.378 l 310.633,0 c 182.211,0 273.359,-43.546 273.359,-130.621 l 0,-347.703 c 0,-88.183 -91.687,-132.265 -275.003,-132.265 l -308.989,0 c -83.793,0 -145.984,7.574 -186.758,22.875 -40.746,15.277 -67.902,40.984 -81.476,77.148 -4.52,11.32 -6.793,21.508 -6.793,30.531 l -1.664,349.414 z" />
                            <path
                               inkscape:connector-curvature="0"
                               id="path3396"
                               style="fill:#000000;fill-opacity:1;fill-rule:nonzero;stroke:none"
                               d="m 4422.676,1308.355 254.644,0 157.891,-424.027 86.562,335.84 c 7.915,29.406 30.293,53.129 67.059,71.219 36.77,18.07 80.656,27.16 131.574,27.16 26.012,0 52.633,-2.836 79.774,-8.484 72.429,-13.571 114.863,-43.54 127.375,-89.895 l 86.562,-335.84 156.176,424.027 254.645,0 -196.93,-532.597 c -15.883,-42.981 -63.406,-70.68 -142.61,-83.102 -21.488,-3.371 -43.023,-5.086 -64.511,-5.086 -52.067,0 -97.36,8.207 -135.813,24.59 -38.476,16.399 -61.136,37.567 -67.886,63.598 l -101.868,362.98 -83.179,-362.98 c -5.696,-24.887 -28.309,-45.817 -67.887,-62.758 -39.652,-16.969 -85.504,-25.43 -137.531,-25.43 -43.02,0 -82.625,6.211 -118.848,18.657 -47.5,15.796 -76.973,38.996 -88.27,69.531 l -196.929,532.597 z" />
                            <path
                               inkscape:connector-curvature="0"
                               id="path3398"
                               style="fill:#000000;fill-opacity:1;fill-rule:nonzero;stroke:none"
                               d="m 6186.512,1135.355 1.683,-262.886 c 0,-28.305 28.868,-42.438 86.582,-42.438 l 161.27,0 c 57.715,0 86.601,12.465 86.601,37.328 l 0,267.996 c 0,28.266 -28.886,42.379 -86.601,42.379 l -161.27,0 c -58.882,0 -88.265,-14.113 -88.265,-42.379 m -263.153,42.379 c 0,10.188 2.297,20.946 6.817,32.243 28.265,65.57 118.246,98.378 269.945,98.378 l 310.625,0 c 182.219,0 273.32,-43.546 273.32,-130.621 l 0,-347.703 c 0,-88.183 -91.644,-132.265 -275.031,-132.265 l -308.914,0 c -83.793,0 -146.035,7.574 -186.758,22.875 -40.773,15.277 -67.91,40.984 -81.519,77.148 -4.543,11.32 -6.754,21.508 -6.754,30.531 l -1.731,349.414 z" />
                          </g>
                        </g>
                      </g>
                    </g>
                  </g>
                </g>
              </g>
            </g>
          </g>
        </g>
      </g>
      <g
         id="g3400"
         style="fill:#000000">
        <path
           inkscape:connector-curvature="0"
           id="path3402"
           style="fill:#000000;fill-opacity:1;fill-rule:nonzero;stroke:none"
           d="m 4711.75,2154.861 -1327.105,-582.934 -1318.821,579.277 158.153,-360.082 1090.117,-250.187 -146.313,-64.289 213.051,48.949 228.895,-52.652 -157.114,69.054 1100.879,252.809 158.258,360.055 z" />
        <text
           id="text3404"
           style="font-variant:normal;font-weight:normal;font-size:366.17907715px;font-family:'DejaVu Sans';-inkscape-font-specification:DejaVuSans;writing-mode:lr-tb;fill:#000000;fill-opacity:1;fill-rule:nonzero;stroke:none"
           transform="matrix(1,0,0,-1,6735.0567,1309.7819)">
          <tspan
             id="tspan3406"
             y="0"
             x="0"
             style="fill:#000000">®</tspan>
        </text>
      </g>
    </g>
    <g
       transform="scale(1.1369456,0.87954955)"
       style="font-style:normal;font-weight:normal;font-size:39.34091187px;line-height:125%;font-family:sans-serif;letter-spacing:0px;word-spacing:0px;fill:#000000;fill-opacity:1;stroke:none;stroke-width:1px;stroke-linecap:butt;stroke-linejoin:miter;stroke-opacity:1"
       id="text3440">
      <path
         d="m 77.462152,789.79297 0,-475.73092 88.359178,0 0,129.33734 119.0928,0 q 34.57533,0 57.62555,22.40994 23.05022,22.40993 23.05022,56.98526 l 0,266.99838 -87.71889,0 0,-231.78276 0,-10.24455 q 0,-5.12227 -3.20142,-10.24454 -5.76256,-5.76255 -19.20852,-5.76255 l -64.66867,0 q -24.97107,0 -24.97107,16.00709 l 0,10.88483 0.64028,231.14248 -88.999458,0 z"
         style="font-size:640.28387451px"
         id="path3375" />
      <path
         d="m 427.03715,443.39939 199.12828,0 q 42.25874,0 65.30896,21.12937 23.05022,21.12937 23.05022,60.82697 l 0,183.76147 q 0,34.57533 -22.40994,57.62555 -22.40993,23.05022 -56.98526,23.05022 l -120.37337,0 q -42.25874,0 -65.94924,-20.48909 -23.6905,-20.48908 -23.6905,-57.62554 l 0,-70.43123 q 0,-39.05732 22.40993,-60.82697 22.40994,-21.76965 62.74782,-21.76965 l 117.17195,0 0,-8.32369 q 0,-23.6905 -23.6905,-23.6905 l -176.71835,0 0,-83.23691 z m 86.43832,241.38702 q 0,8.32369 6.40284,14.08625 6.40284,5.76255 16.0071,5.76255 l 67.87009,0 q 23.6905,0 23.6905,-19.8488 l 0,-24.33078 q 0,-20.48909 -24.33079,-20.48909 l -67.2298,0 q -13.44596,0 -17.92795,4.48199 -4.48199,4.48199 -4.48199,18.56823 l 0,21.76965 z"
         style="font-size:640.28387451px"
         id="path3377" />
      <path
         d="m 775.27157,789.79297 0,-256.75383 q 0,-89.63975 89.63974,-89.63975 l 60.18669,0 0,88.35918 -33.29476,0 q -12.1654,0 -20.48909,5.12227 -7.68341,5.12227 -7.68341,12.80568 l 0,10.24454 0,229.86191 -88.35917,0 z"
         style="font-size:640.28387451px"
         id="path3379" />
      <path
         d="m 1195.3077,789.79297 -141.5027,0 q -92.20091,0 -92.20091,-88.99946 l 0,-175.43778 q 0,-39.6976 19.20852,-60.82697 19.20849,-21.12937 54.42409,-21.12937 l 159.4307,0 0,88.35918 -118.4525,0 -14.0862,0 q -3.8417,0.64028 -8.3237,5.76255 -3.8417,4.48199 -3.8417,8.32369 l 0,10.88483 0,121.01365 q 0,10.24454 6.4028,17.28767 6.4028,7.04312 17.928,7.04312 l 121.0136,0 0,87.71889 z"
         style="font-size:640.28387451px"
         id="path3381" />
      <path
         d="m 1532.9674,789.79297 -192.0852,0 q -27.5322,0 -41.6184,-4.48199 -13.446,-4.48199 -28.1725,-17.28766 -14.0862,-14.08625 -19.2085,-27.53221 -5.1223,-14.08624 -5.1223,-40.97817 l -1.2806,-174.7975 q 0,-37.77674 23.0503,-59.5464 23.0502,-21.76965 63.3881,-21.76965 l 118.4525,0 q 39.6976,0 61.4672,22.40994 21.7697,21.76965 21.7697,61.46725 l 0,69.15066 -198.488,75.5535 0,5.76255 q 0,9.60426 5.1223,17.28767 5.1222,7.04312 12.1654,7.04312 l 10.8848,0 169.6752,0 0,87.71889 z m -199.1283,-231.78276 0,35.85589 110.7691,-40.97816 q 0,-7.04313 -6.4028,-12.1654 -6.4028,-5.12227 -14.7265,-5.12227 l -61.4673,0 q -11.5251,0 -19.8488,6.40284 -8.3237,6.40284 -8.3237,16.0071 z"
         style="font-size:640.28387451px"
         id="path3383" />
      <path
         d="m 1588.1319,789.79297 0,-256.75383 q 0,-89.63975 89.6398,-89.63975 l 60.1866,0 0,88.35918 -33.2947,0 q -12.1654,0 -20.4891,5.12227 -7.6834,5.12227 -7.6834,12.80568 l 0,10.24454 0,229.86191 -88.3592,0 z"
         style="font-size:640.28387451px"
         id="path3385" />
      <path
         d="m 1774.9998,789.79297 0,-87.71889 152.3876,0 q 21.1293,0 21.1293,-16.64738 l 0,-7.68341 -1.9208,-7.68341 q -3.8417,-9.60425 -12.1654,-9.60425 l -8.964,0 -66.5895,0 q -33.2948,0 -58.2658,-21.76966 -24.3308,-22.40993 -24.3308,-51.86299 l 0,-64.66867 q 0,-36.49618 23.0502,-57.62555 23.0502,-21.12937 62.7478,-21.12937 l 176.7184,0 0.6403,88.35918 -150.4668,0 q -26.2516,0 -26.2516,16.00709 l 0,8.32369 q 0,16.64739 26.2516,16.64739 l 73.6327,0 q 30.0933,0 53.1436,23.05021 23.0502,23.05022 23.0502,53.78385 l -1.2806,63.3881 q 0,31.37391 -23.6905,53.78385 -13.446,13.44596 -25.6114,18.56823 -12.1654,4.48199 -32.6544,4.48199 l -180.5601,0 z"
         style="font-size:640.28387451px"
         id="path3387" />
      <path
         d="m 2094.6064,789.79297 0,-475.73092 88.3592,0 0,129.33734 58.9061,0 0,88.35918 -58.9061,0 0,258.0344 -88.3592,0 z"
         style="font-size:640.28387451px"
         id="path3389" />
      <path
         d="m 2251.0258,443.39939 85.1578,0 47.381,242.66759 30.0933,-186.32261 q 5.1223,-28.17249 21.7697,-44.17958 16.6474,-16.64738 40.9781,-16.64738 24.9711,0 41.6185,16.00709 16.6474,16.0071 21.1294,44.81987 l 29.453,186.32261 48.6616,-242.66759 84.5175,0 -56.9853,287.48746 q -6.4028,30.73363 -25.6114,48.02129 -19.2085,17.28767 -48.0212,17.28767 -26.2517,0 -45.4602,-16.64738 -19.2085,-17.28767 -24.3308,-44.81987 l -27.5322,-175.43779 -23.0502,175.43779 q -3.2014,26.89192 -23.0502,44.17958 -19.8488,17.28767 -46.7408,17.28767 -28.1724,0 -48.0212,-17.28767 -19.2086,-17.28766 -24.3308,-48.02129 l -57.6256,-287.48746 z"
         style="font-size:640.28387451px"
         id="path3391" />
      <path
         d="m 2825.7505,789.79297 q -24.9711,0 -36.4962,-3.20142 -10.8848,-3.20142 -23.6905,-14.08625 -28.1725,-23.6905 -28.1725,-60.18668 l 0,-190.80459 q 0,-16.64739 7.6834,-32.65448 7.6834,-16.64738 19.8488,-26.89193 12.1654,-10.88482 24.3308,-14.72652 12.8057,-3.84171 36.4962,-3.84171 l 117.8122,0 q 21.7697,0 34.5754,3.84171 13.4459,3.8417 25.6113,13.44596 26.8919,23.6905 26.8919,60.82697 l 0,190.80459 q 0,35.21561 -26.8919,60.18668 -10.8848,9.60426 -24.3308,13.44597 -13.4459,3.8417 -35.8559,3.8417 l -117.8122,0 z m 0,-111.4094 q 0,23.69051 27.5322,23.69051 l 62.1075,0 q 26.892,0 26.892,-24.33079 l 0,-122.29422 q 0,-23.6905 -26.892,-23.6905 l -62.1075,0 q -27.5322,0 -27.5322,23.6905 l 0,122.9345 z"
         style="font-size:640.28387451px"
         id="path3393" />
      <path
         d="m 3276.4104,789.79297 -1.2806,-263.15667 q 0,-38.41704 21.7697,-60.82697 21.7697,-22.40994 59.5464,-22.40994 l 67.2298,0 q 7.0431,0 14.7265,1.28057 8.3237,1.28057 17.2877,2.56114 13.446,3.20142 19.8488,8.32369 6.4028,4.48198 16.6474,18.56823 3.8417,-5.76256 7.0431,-9.60426 3.8417,-3.8417 5.1223,-5.12227 17.9279,-16.0071 56.345,-16.0071 l 67.2298,0 q 37.1364,0 58.9061,22.40994 21.7696,22.40993 21.7696,60.82697 l 0,263.15667 -87.7189,0 0,-231.78276 q 0,-26.25164 -23.6905,-26.25164 l -38.417,0 q -23.0502,0 -23.0502,21.76965 l 0,236.26475 -87.0786,0 0,-236.26475 q 0,-21.76965 -23.0502,-21.76965 l -38.4171,0 q -24.3308,0 -24.3308,26.25164 l 0.6403,231.78276 -87.0786,0 z"
         style="font-size:640.28387451px"
         id="path3395" />
      <path
         d="m 3769.1289,789.79297 0,-346.39358 87.0786,0 0,346.39358 -87.0786,0 z m -11.5251,-434.75275 q 0,-23.69051 16.0071,-40.33789 16.0071,-16.64738 39.0573,-16.64738 23.0502,0 38.4171,16.64738 16.0071,16.0071 16.0071,39.6976 0,22.40994 -16.0071,37.77675 -16.0071,15.36682 -38.4171,15.36682 -23.0502,0 -39.0573,-15.36682 -16.0071,-15.36681 -16.0071,-37.13646 z"
         style="font-size:640.28387451px"
         id="path3397" />
      <path
         d="m 3915.4138,789.79297 0,-475.73092 88.3592,0 0,475.73092 -88.3592,0 z"
         style="font-size:640.28387451px"
         id="path3399" />
      <path
         d="m 4064.2598,789.79297 0,-346.39358 87.0786,0 0,346.39358 -87.0786,0 z m -11.5251,-434.75275 q 0,-23.69051 16.0071,-40.33789 16.0071,-16.64738 39.0573,-16.64738 23.0502,0 38.417,16.64738 16.0071,16.0071 16.0071,39.6976 0,22.40994 -16.0071,37.77675 -16.0071,15.36682 -38.417,15.36682 -23.0502,0 -39.0573,-15.36682 -16.0071,-15.36681 -16.0071,-37.13646 z"
         style="font-size:640.28387451px"
         id="path3401" />
      <path
         d="m 4210.5446,789.79297 0,-475.73092 88.3592,0 0,129.33734 58.9061,0 0,88.35918 -58.9061,0 0,258.0344 -88.3592,0 z"
         style="font-size:640.28387451px"
         id="path3403" />
      <path
         d="m 4383.1662,443.39939 199.1283,0 q 42.2587,0 65.3089,21.12937 23.0502,21.12937 23.0502,60.82697 l 0,183.76147 q 0,34.57533 -22.4099,57.62555 -22.4099,23.05022 -56.9853,23.05022 l -120.3733,0 q -42.2588,0 -65.9493,-20.48909 -23.6905,-20.48908 -23.6905,-57.62554 l 0,-70.43123 q 0,-39.05732 22.41,-60.82697 22.4099,-21.76965 62.7478,-21.76965 l 117.1719,0 0,-8.32369 q 0,-23.6905 -23.6905,-23.6905 l -176.7183,0 0,-83.23691 z m 86.4383,241.38702 q 0,8.32369 6.4028,14.08625 6.4029,5.76255 16.0071,5.76255 l 67.8701,0 q 23.6905,0 23.6905,-19.8488 l 0,-24.33078 q 0,-20.48909 -24.3308,-20.48909 l -67.2298,0 q -13.4459,0 -17.9279,4.48199 -4.482,4.48199 -4.482,18.56823 l 0,21.76965 z"
         style="font-size:640.28387451px"
         id="path3405" />
      <path
         d="m 4732.0256,789.79297 0,-256.75383 q 0,-89.63975 89.6397,-89.63975 l 60.1867,0 0,88.35918 -33.2947,0 q -12.1654,0 -20.4891,5.12227 -7.6834,5.12227 -7.6834,12.80568 l 0,10.24454 0,229.86191 -88.3592,0 z"
         style="font-size:640.28387451px"
         id="path3407" />
      <path
         d="m 4914.6367,789.79297 0,-346.39358 87.0786,0 0,346.39358 -87.0786,0 z m -11.5251,-434.75275 q 0,-23.69051 16.0071,-40.33789 16.0071,-16.64738 39.0573,-16.64738 23.0503,0 38.4171,16.64738 16.0071,16.0071 16.0071,39.6976 0,22.40994 -16.0071,37.77675 -16.0071,15.36682 -38.4171,15.36682 -23.0502,0 -39.0573,-15.36682 -16.0071,-15.36681 -16.0071,-37.13646 z"
         style="font-size:640.28387451px"
         id="path3409" />
      <path
         d="m 5062.8424,443.39939 199.1283,0 q 42.2588,0 65.309,21.12937 23.0502,21.12937 23.0502,60.82697 l 0,183.76147 q 0,34.57533 -22.4099,57.62555 -22.41,23.05022 -56.9853,23.05022 l -120.3734,0 q -42.2587,0 -65.9492,-20.48909 -23.6905,-20.48908 -23.6905,-57.62554 l 0,-70.43123 q 0,-39.05732 22.4099,-60.82697 22.41,-21.76965 62.7478,-21.76965 l 117.172,0 0,-8.32369 q 0,-23.6905 -23.6905,-23.6905 l -176.7184,0 0,-83.23691 z m 86.4384,241.38702 q 0,8.32369 6.4028,14.08625 6.4028,5.76255 16.0071,5.76255 l 67.8701,0 q 23.6905,0 23.6905,-19.8488 l 0,-24.33078 q 0,-20.48909 -24.3308,-20.48909 l -67.2298,0 q -13.446,0 -17.9279,4.48199 -4.482,4.48199 -4.482,18.56823 l 0,21.76965 z"
         style="font-size:640.28387451px"
         id="path3411" />
      <path
         d="m 5684.5181,789.79297 q -24.9711,0 -36.4962,-3.20142 -10.8848,-3.20142 -23.6905,-14.08625 -28.1725,-23.6905 -28.1725,-60.18668 l 0,-190.80459 q 0,-16.64739 7.6834,-32.65448 7.6834,-16.64738 19.8488,-26.89193 12.1654,-10.88482 24.3308,-14.72652 12.8057,-3.84171 36.4962,-3.84171 l 117.8122,0 q 21.7697,0 34.5753,3.84171 13.446,3.8417 25.6114,13.44596 26.8919,23.6905 26.8919,60.82697 l 0,190.80459 q 0,35.21561 -26.8919,60.18668 -10.8848,9.60426 -24.3308,13.44597 -13.446,3.8417 -35.8559,3.8417 l -117.8122,0 z m 0,-111.4094 q 0,23.69051 27.5322,23.69051 l 62.1075,0 q 26.8919,0 26.8919,-24.33079 l 0,-122.29422 q 0,-23.6905 -26.8919,-23.6905 l -62.1075,0 q -27.5322,0 -27.5322,23.6905 l 0,122.9345 z"
         style="font-size:640.28387451px"
         id="path3413" />
      <path
         d="m 6236.3026,443.39939 0,263.15668 q 0,40.33788 -21.7696,62.10753 -21.1294,21.12937 -61.4673,21.12937 l -121.0136,0 q -40.3379,0 -62.1076,-21.12937 -21.1294,-21.76965 -21.1294,-62.10753 l 0,-263.15668 88.3592,0 0,234.3439 q 0,24.33079 28.1725,24.33079 l 55.0644,0 q 28.1725,0 28.1725,-24.33079 l 0,-234.3439 87.7189,0 z"
         style="font-size:640.28387451px"
         id="path3415" />
      <path
         d="m 6296.4694,789.79297 0,-475.73092 88.3592,0 0,129.33734 58.9061,0 0,88.35918 -58.9061,0 0,258.0344 -88.3592,0 z"
         style="font-size:640.28387451px"
         id="path3417" />
      <path
         d="m 6759.1396,314.06205 0,382.88976 q 0,26.25164 -3.8417,39.6976 -3.8417,12.80567 -16.6474,26.25164 -24.9711,26.89192 -66.5895,26.89192 l -124.2151,0 q -35.8559,0 -58.2658,-23.6905 -22.41,-23.69051 -22.41,-63.38811 l 0,-172.87664 q 0,-37.77675 22.41,-62.10754 22.4099,-24.33079 56.9852,-24.33079 l 124.8554,0 0,-129.33734 87.7189,0 z M 6559.371,695.03096 q 8.3237,7.04312 18.5682,7.04312 l 71.7118,0 q 8.964,0 15.3668,-5.76256 6.4029,-5.76255 6.4029,-14.72653 l 0,-125.49564 q 0,-24.33078 -25.6114,-24.33078 l -66.5895,0 q -10.2445,0 -17.2877,7.6834 -6.4028,7.04313 -6.4028,17.28767 l 0,122.29422 0,8.32369 3.8417,7.68341 z"
         style="font-size:640.28387451px"
         id="path3419" />
      <path
         d="m 6907.5606,789.79297 q -24.9711,0 -36.4962,-3.20142 -10.8849,-3.20142 -23.6905,-14.08625 -28.1725,-23.6905 -28.1725,-60.18668 l 0,-190.80459 q 0,-16.64739 7.6834,-32.65448 7.6834,-16.64738 19.8488,-26.89193 12.1654,-10.88482 24.3308,-14.72652 12.8057,-3.84171 36.4962,-3.84171 l 117.8122,0 q 21.7696,0 34.5753,3.84171 13.446,3.8417 25.6114,13.44596 26.8919,23.6905 26.8919,60.82697 l 0,190.80459 q 0,35.21561 -26.8919,60.18668 -10.8849,9.60426 -24.3308,13.44597 -13.446,3.8417 -35.8559,3.8417 l -117.8122,0 z m 0,-111.4094 q 0,23.69051 27.5322,23.69051 l 62.1075,0 q 26.8919,0 26.8919,-24.33079 l 0,-122.29422 q 0,-23.6905 -26.8919,-23.6905 l -62.1075,0 q -27.5322,0 -27.5322,23.6905 l 0,122.9345 z"
         style="font-size:640.28387451px"
         id="path3421" />
      <path
         d="m 7260.2168,789.79297 q -24.9711,0 -36.4962,-3.20142 -10.8848,-3.20142 -23.6905,-14.08625 -28.1725,-23.6905 -28.1725,-60.18668 l 0,-190.80459 q 0,-16.64739 7.6834,-32.65448 7.6834,-16.64738 19.8488,-26.89193 12.1654,-10.88482 24.3308,-14.72652 12.8057,-3.84171 36.4962,-3.84171 l 117.8122,0 q 21.7697,0 34.5754,3.84171 13.4459,3.8417 25.6113,13.44596 26.8919,23.6905 26.8919,60.82697 l 0,190.80459 q 0,35.21561 -26.8919,60.18668 -10.8848,9.60426 -24.3308,13.44597 -13.4459,3.8417 -35.8559,3.8417 l -117.8122,0 z m 0,-111.4094 q 0,23.69051 27.5322,23.69051 l 62.1075,0 q 26.892,0 26.892,-24.33079 l 0,-122.29422 q 0,-23.6905 -26.892,-23.6905 l -62.1075,0 q -27.5322,0 -27.5322,23.6905 l 0,122.9345 z"
         style="font-size:640.28387451px"
         id="path3423" />
      <path
         d="m 7525.0587,789.79297 0,-261.50352 q 0,-91.29799 91.298,-91.29799 l 61.3001,0 0,89.99373 -33.9107,0 q -12.3904,0 -20.8681,5.21703 -7.8255,5.21703 -7.8255,13.04257 l 0,10.43405 0,234.11413 -89.9938,0 z"
         style="font-size:652.128479px"
         id="path3425" />
    </g>
  </g>
</svg>
